<svg xmlns:sketch="http://www.bohemiancoding.com/sketch/ns" xmlns="http://www.w3.org/2000/svg" viewBox="-136.9 264.9 612.2 463.2" enable-background="new -136.9 264.9 612.2 463.2"><title>ship</title><desc>Created with Sketch.</desc><g sketch:type="MSLayerGroup"><path sketch:type="MSShapeGroup" d="M170.4 276.3l-69.5 119-226.3 203.7 25.4 39.3 38.5-13.9 54-16.5 35.4 3.4 19.1 14.4 7.6 29.1v14.4l232.6 2.1v-30.9l8.4-19.7 23.1-14.2 29.4 1.8 42.7 12.8 47.5 26 27.5-44.6-231.9-213.2-63.5-113z"/><path sketch:type="MSShapeGroup" fill="#fff" d="M386.5 571l-212.1-170.1c-2.6-2.6-7.6-2.6-10 0l-212.1 170.1c-7.6 5.8-2.6 16.8 6.6 14.9l210.6-52.4 210.4 52.5c9.2 1.8 14.2-8.9 6.6-15zm-215.6-54.8h-4.2l-173.8 44.4 176.5-141.9 177.3 141.9c-.1-.3-175.8-44.4-175.8-44.4zm106.5 134.3v11.8h-216.3v-11.8c0-37.5-26.7-50.9-47.5-50.9-43.3 0-92.3 24.9-109.9 35.1l-21.7-31.7 226.3-201.9 60.8-110.1 60.8 110.1 226.3 201.9-21.8 31.7c-17.6-10-66.6-35.1-109.9-35.1-20.3 0-47.1 13.4-47.1 50.9zm16.8 69.2v-69.2c0-24.1 16.5-34.1 30.7-34.1 49.8 0 92.3 27.5 108.3 36.7 3.4 1.6 8.4.8 10.8-2.6l29.9-43.3c2.6-3.4 1.6-8.4-1.6-10.8l-178.9-160.1v-125.1c0-4.2-4.2-8.4-8.4-8.4-5 0-8.4 4.2-8.4 8.4v110.1l-32.5-29.1-67.4-122.7c-3.4-6.6-11.5-5.8-14.9 0l-67.4 122.7-32.5 29.1v-110.1c0-4.2-4.2-8.4-8.4-8.4-5 0-8.4 4.2-8.4 8.4v125.1l-179.6 160.2c-2.6 2.6-3.4 7.6-.8 10.8l29.9 43.3c2.6 3.4 7.6 4.2 10.8 2.6 11.5-6.6 59.8-36.7 108.3-36.7 14.2 0 30.7 10 30.7 34.1v69.2c0 4.2 3.4 8.4 8.4 8.4 4.2 0 8.4-4.2 8.4-8.4v-40.9h216.3v40.9c0 4.2 3.4 8.4 8.4 8.4 4.1-.1 8.3-4.3 8.3-8.5z"/></g></svg>